<mxfile host="app.diagrams.net" modified="2024-04-03T14:53:34.537Z" agent="Mozilla/5.0 (X11; Linux x86_64; rv:124.0) Gecko/20100101 Firefox/124.0" etag="S5utbYQFjUJngC10nxCy" version="24.2.2" type="google">
  <diagram id="aG85C2SP72KjwLObzrI8" name="Page-1">
    <mxGraphModel grid="1" page="1" gridSize="10" guides="1" tooltips="1" connect="1" arrows="1" fold="1" pageScale="1" pageWidth="1169" pageHeight="827" math="0" shadow="0">
      <root>
        <mxCell id="0" />
        <mxCell id="1" parent="0" />
        <mxCell id="NumrLUZ_5ZjBdyxwcPVm-82" value="" style="shape=ext;double=1;rounded=0;whiteSpace=wrap;html=1;strokeWidth=1;fillColor=#FFFFFF;strokeColor=none;" vertex="1" parent="1">
          <mxGeometry x="-200" y="-30" width="1200" height="720" as="geometry" />
        </mxCell>
        <mxCell id="azgEpP8wAGJS18bVVK_o-9" value="" style="rounded=1;whiteSpace=wrap;html=1;align=center;fillColor=none;arcSize=1;strokeColor=#FFB61E;movable=1;resizable=1;rotatable=1;deletable=1;editable=1;locked=0;connectable=1;" vertex="1" parent="1">
          <mxGeometry x="-150" y="-5.240000000000009" width="1080" height="226.64" as="geometry" />
        </mxCell>
        <mxCell id="NumrLUZ_5ZjBdyxwcPVm-86" value="&lt;font style=&quot;font-size: 16px ; font-style: normal&quot;&gt;Open Telemetry Collector&lt;/font&gt;" style="rounded=1;whiteSpace=wrap;html=1;strokeWidth=1;strokeColor=#008AFF;fontStyle=2;fillColor=#CCE8FF;fillOpacity=40;arcSize=1;" vertex="1" parent="1">
          <mxGeometry x="614.9961290322581" y="91.55610310841548" width="145.16129032258064" height="63.04776345716452" as="geometry" />
        </mxCell>
        <mxCell id="NumrLUZ_5ZjBdyxwcPVm-93" value="&lt;span style=&quot;font-style: normal&quot;&gt;&lt;font style=&quot;font-size: 20px&quot;&gt;&lt;b&gt;&amp;nbsp;StackState&lt;/b&gt;&lt;/font&gt;&lt;br&gt;&lt;/span&gt;" style="rounded=1;whiteSpace=wrap;html=1;strokeWidth=1;strokeColor=#008AFF;fontStyle=2;fillColor=#CCE8FF;fillOpacity=40;verticalAlign=top;align=left;arcSize=1;" vertex="1" parent="1">
          <mxGeometry x="-40" y="380" width="970" height="290" as="geometry" />
        </mxCell>
        <mxCell id="NumrLUZ_5ZjBdyxwcPVm-95" value="&lt;font face=&quot;helvetica&quot; size=&quot;1&quot;&gt;&lt;font color=&quot;#c1c8d0&quot; style=&quot;font-size: 16px&quot;&gt;No topology retrieved&amp;nbsp;&lt;/font&gt;&lt;br&gt;&lt;/font&gt;" style="text;whiteSpace=wrap;html=1;fillColor=#ffffff;fillOpacity=60;rounded=1;align=center;arcSize=1;verticalAlign=middle;" vertex="1" parent="1">
          <mxGeometry x="449.5767741935483" y="495.0947687642153" width="220" height="140" as="geometry" />
        </mxCell>
        <mxCell id="NumrLUZ_5ZjBdyxwcPVm-96" value="&lt;div&gt;&lt;/div&gt;&lt;div style=&quot;font-size: 10px&quot;&gt;&lt;/div&gt;&lt;font face=&quot;helvetica&quot; size=&quot;1&quot;&gt;&lt;b style=&quot;font-size: 16px&quot;&gt;Metrics&lt;/b&gt;&lt;br&gt;&lt;/font&gt;" style="text;whiteSpace=wrap;html=1;fillColor=#ffffff;fillOpacity=60;align=center;verticalAlign=top;rounded=1;arcSize=1;" vertex="1" parent="1">
          <mxGeometry x="219.9999859747545" y="495.0947687642153" width="220" height="140" as="geometry" />
        </mxCell>
        <mxCell id="NumrLUZ_5ZjBdyxwcPVm-97" value="&lt;div style=&quot;font-size: 10px&quot;&gt;&lt;/div&gt;&lt;b&gt;&lt;span style=&quot;font-family: &amp;quot;helvetica&amp;quot; ; font-size: 16px&quot;&gt;Traces&lt;br&gt;&lt;/span&gt;&lt;/b&gt;" style="text;whiteSpace=wrap;html=1;fillColor=#ffffff;fillOpacity=60;align=center;verticalAlign=top;rounded=1;arcSize=1;" vertex="1" parent="1">
          <mxGeometry x="689.9955726975222" y="495.0047687642153" width="220" height="140" as="geometry" />
        </mxCell>
        <mxCell id="NumrLUZ_5ZjBdyxwcPVm-106" value="&lt;font face=&quot;helvetica&quot; size=&quot;1&quot;&gt;&lt;font color=&quot;#c1c8d0&quot; style=&quot;font-size: 16px&quot;&gt;No logs or events retrieved&amp;nbsp;&lt;/font&gt;&lt;br&gt;&lt;/font&gt;" style="text;whiteSpace=wrap;html=1;fillColor=#ffffff;fillOpacity=60;align=center;verticalAlign=middle;rounded=1;arcSize=1;" vertex="1" parent="1">
          <mxGeometry x="-20" y="495" width="220" height="140" as="geometry" />
        </mxCell>
        <mxCell id="t_z0C_LVNnkTvGJ8oj7n-2" value="&lt;div style=&quot;text-align: left&quot;&gt;&lt;br&gt;&lt;/div&gt;" style="text;html=1;align=center;verticalAlign=middle;resizable=0;points=[];autosize=1;" vertex="1" parent="1">
          <mxGeometry x="225.97000000000003" y="532.38" width="20" height="20" as="geometry" />
        </mxCell>
        <mxCell id="jCoO6dXICAr47p2ZTsIo-21" value="&lt;div style=&quot;font-size: 16px&quot;&gt;From&lt;/div&gt;&lt;div style=&quot;font-size: 16px&quot;&gt;- from language SDK&lt;br&gt;&lt;/div&gt;&lt;div style=&quot;font-size: 16px&quot;&gt;- from traces&lt;br&gt;&lt;/div&gt;" style="text;html=1;align=left;verticalAlign=middle;resizable=0;points=[];autosize=1;" vertex="1" parent="1">
          <mxGeometry x="247" y="530" width="170" height="70" as="geometry" />
        </mxCell>
        <mxCell id="xBDIy38juaYT07p71_3k-19" value="" style="rounded=0;whiteSpace=wrap;html=1;fillColor=none;strokeColor=none;" vertex="1" parent="1">
          <mxGeometry x="467" y="450" width="40" height="20" as="geometry" />
        </mxCell>
        <mxCell id="xBDIy38juaYT07p71_3k-11" style="edgeStyle=orthogonalEdgeStyle;rounded=0;orthogonalLoop=1;jettySize=auto;html=1;endArrow=open;endFill=0;exitX=0.5;exitY=1;exitDx=0;exitDy=0;entryX=0.75;entryY=0;entryDx=0;entryDy=0;" edge="1" parent="1" source="NumrLUZ_5ZjBdyxwcPVm-86" target="NumrLUZ_5ZjBdyxwcPVm-93">
          <mxGeometry relative="1" as="geometry">
            <mxPoint x="833" y="380" as="targetPoint" />
            <mxPoint x="832.5767741935483" y="103.04386656558017" as="sourcePoint" />
          </mxGeometry>
        </mxCell>
        <mxCell id="xBDIy38juaYT07p71_3k-30" value="OTLP" style="edgeLabel;html=1;align=center;verticalAlign=middle;resizable=0;points=[];" vertex="1" connectable="0" parent="xBDIy38juaYT07p71_3k-11">
          <mxGeometry x="0.0866" y="3" relative="1" as="geometry">
            <mxPoint x="-3" y="-7" as="offset" />
          </mxGeometry>
        </mxCell>
        <mxCell id="9Uy9AL32szdq0QSQS5cE-1" value="" style="shape=image;imageAspect=0;verticalLabelPosition=bottom;verticalAlign=top;image=https://opentelemetry.io/img/logos/opentelemetry-horizontal-color.svg;aspect=fixed;" vertex="1" parent="1">
          <mxGeometry x="-140" y="8.04" width="285.2" height="106.95" as="geometry" />
        </mxCell>
        <mxCell id="9Uy9AL32szdq0QSQS5cE-2" value="&lt;div style=&quot;font-size: 16px&quot;&gt;From&lt;/div&gt;&lt;div style=&quot;font-size: 16px&quot;&gt;- from language SDK&lt;br&gt;&lt;/div&gt;&lt;div style=&quot;font-size: 16px&quot;&gt;&lt;br&gt;&lt;/div&gt;" style="text;html=1;align=left;verticalAlign=middle;resizable=0;points=[];autosize=1;" vertex="1" parent="1">
          <mxGeometry x="715" y="532.38" width="170" height="70" as="geometry" />
        </mxCell>
        <mxCell id="9Uy9AL32szdq0QSQS5cE-3" value="&lt;div style=&quot;font-size: 16px;&quot;&gt;&lt;b style=&quot;font-size: 16px;&quot;&gt;Java Application&lt;/b&gt;&lt;/div&gt;" style="rounded=1;whiteSpace=wrap;html=1;strokeWidth=1;strokeColor=#008AFF;fontStyle=0;fillColor=#CCE8FF;fillOpacity=40;arcSize=1;verticalAlign=top;align=left;fontSize=16;" vertex="1" parent="1">
          <mxGeometry x="200" y="8.04" width="190" height="91.96" as="geometry" />
        </mxCell>
        <mxCell id="9Uy9AL32szdq0QSQS5cE-7" value="OTLP" style="edgeStyle=orthogonalEdgeStyle;rounded=0;orthogonalLoop=1;jettySize=auto;html=1;entryX=0;entryY=0.5;entryDx=0;entryDy=0;" edge="1" parent="1" source="9Uy9AL32szdq0QSQS5cE-4" target="NumrLUZ_5ZjBdyxwcPVm-86">
          <mxGeometry relative="1" as="geometry" />
        </mxCell>
        <mxCell id="9Uy9AL32szdq0QSQS5cE-4" value="&lt;div&gt;Open Telemetry &lt;br&gt;&lt;/div&gt;&lt;div&gt;Java SDK&lt;br&gt;&lt;/div&gt;" style="rounded=0;whiteSpace=wrap;html=1;strokeColor=#ffa348;fontStyle=1" vertex="1" parent="1">
          <mxGeometry x="270" y="40" width="120" height="60" as="geometry" />
        </mxCell>
        <mxCell id="9Uy9AL32szdq0QSQS5cE-5" value="&lt;div style=&quot;font-size: 16px;&quot;&gt;&lt;b style=&quot;font-size: 16px;&quot;&gt;.NET Application&lt;/b&gt;&lt;/div&gt;" style="rounded=1;whiteSpace=wrap;html=1;strokeWidth=1;strokeColor=#008AFF;fontStyle=0;fillColor=#CCE8FF;fillOpacity=40;arcSize=1;verticalAlign=top;align=left;fontSize=16;" vertex="1" parent="1">
          <mxGeometry x="200" y="114.99000000000001" width="190" height="91.96" as="geometry" />
        </mxCell>
        <mxCell id="9Uy9AL32szdq0QSQS5cE-9" value="OTLP" style="edgeStyle=orthogonalEdgeStyle;rounded=0;orthogonalLoop=1;jettySize=auto;html=1;entryX=0;entryY=0.5;entryDx=0;entryDy=0;" edge="1" parent="1" source="9Uy9AL32szdq0QSQS5cE-6" target="NumrLUZ_5ZjBdyxwcPVm-86">
          <mxGeometry relative="1" as="geometry" />
        </mxCell>
        <mxCell id="9Uy9AL32szdq0QSQS5cE-6" value="&lt;div&gt;Open Telemetry &lt;br&gt;&lt;/div&gt;&lt;div&gt;.NET SDK&lt;br&gt;&lt;/div&gt;" style="rounded=0;whiteSpace=wrap;html=1;strokeColor=#ffa348;fontStyle=1" vertex="1" parent="1">
          <mxGeometry x="270" y="146.95" width="120" height="60" as="geometry" />
        </mxCell>
      </root>
    </mxGraphModel>
  </diagram>
</mxfile>
